# Blender v2.78 (sub 0) OBJ File: ''
# www.blender.org
mtllib Life Bonus.mtl
g Life_Bonus
v 0.590870 0.969582 0.394394
v 0.590843 0.002890 0.500244
v 0.590843 1.034466 0.500244
v 0.590883 0.937140 -0.221495
v 0.590870 0.969582 -0.394394
v 0.590843 0.918116 -0.300000
v -0.547264 1.094903 -0.470984
v -0.393863 1.094903 -0.470984
v -0.547264 1.094903 0.470984
v -0.393863 1.094903 0.470984
v -0.590843 0.040967 -0.300000
v -0.590843 0.167694 -0.300000
v -0.590843 0.040967 0.300000
v -0.590843 0.167694 0.300000
v -0.393863 1.034466 -0.221495
v -0.590843 1.034466 -0.221495
v -0.393863 1.034466 0.221495
v -0.590843 1.034466 0.221495
v -0.393863 1.002024 0.247760
v -0.590856 1.002024 0.247760
v -0.393863 1.002024 0.394394
v -0.590856 1.002024 0.394394
v -0.393863 0.040967 0.300000
v -0.393863 0.002890 0.300000
v -0.590843 0.002890 0.300000
v -0.393863 1.002024 -0.394394
v -0.590856 1.002024 -0.394394
v -0.393863 1.002024 -0.247760
v -0.590856 1.002024 -0.247760
v -0.590883 0.937140 -0.221495
v -0.590883 0.937140 0.221495
v -0.590843 0.918116 -0.300000
v -0.590843 0.918116 0.300000
v -0.590870 0.969582 0.247760
v -0.393863 0.969582 0.247760
v -0.590870 0.969582 0.394394
v -0.393863 0.969582 0.394394
v -0.393863 0.002890 0.550763
v -0.547264 0.002890 0.550763
v -0.393863 1.034466 0.550763
v -0.547264 1.034466 0.550763
v -0.590843 1.034466 0.500244
v -0.590843 0.002890 0.500244
v -0.393863 0.937140 0.221495
v -0.393863 0.002890 -0.300000
v -0.590843 0.002890 -0.300000
v -0.393863 0.040967 -0.300000
v 0.393863 0.791390 -0.500244
v -0.393863 0.791390 -0.500244
v 0.393863 0.167694 -0.500244
v -0.393863 0.167694 -0.500244
v -0.590843 0.791390 -0.300000
v -0.590843 0.791390 0.300000
v -0.590843 1.034466 -0.500244
v -0.547264 1.034466 -0.550763
v -0.393863 1.034466 -0.550763
v -0.590870 0.969582 -0.394394
v -0.393863 0.969582 -0.394394
v -0.590870 0.969582 -0.247760
v -0.393863 0.969582 -0.247760
v -0.393863 0.937140 -0.221495
v -0.590843 0.002890 -0.500244
v -0.547264 0.002890 -0.550763
v -0.393863 0.002890 -0.550763
v 0.393863 0.918116 -0.369967
v 0.295930 0.986931 -0.276150
v -0.393863 0.918116 -0.369967
v -0.295930 0.986931 -0.276150
v 0.547264 1.094903 0.470984
v 0.393863 1.094903 0.470984
v 0.547264 1.094903 -0.470984
v 0.393863 1.094903 -0.470984
v 0.590843 0.040967 0.300000
v 0.590843 0.167694 0.300000
v 0.590843 0.040967 -0.300000
v 0.590843 0.167694 -0.300000
v 0.393863 1.034466 0.221495
v 0.590843 1.034466 0.221495
v 0.393863 1.034466 -0.221495
v 0.590843 1.034466 -0.221495
v 0.590856 1.002024 0.247760
v 0.393863 1.002024 0.247760
v 0.393863 1.002024 0.394394
v 0.590856 1.002024 0.394394
v 0.393863 0.918116 0.369967
v 0.295930 0.986931 0.276150
v 0.590870 0.969582 0.247760
v 0.393863 0.969582 0.247760
v 0.590883 0.937140 0.221495
v 0.393863 0.937140 0.221495
v 0.393863 0.040967 -0.300000
v 0.393863 0.002890 -0.300000
v 0.590843 0.002890 -0.300000
v 0.590843 0.791390 -0.300000
v 0.590843 0.791390 0.300000
v 0.590843 1.034466 -0.500244
v -0.393863 0.040967 -0.463493
v -0.393863 0.075470 -0.500244
v -0.393863 0.918116 -0.500244
v -0.393863 0.937140 -0.461305
v -0.393863 1.034466 -0.500244
v -0.393863 1.034466 0.500244
v -0.393863 0.937140 0.461305
v -0.393863 0.937140 0.369967
v -0.393863 0.918116 0.369967
v -0.393863 0.937140 -0.369967
v -0.393863 0.918116 0.500244
v -0.393863 0.791390 0.500244
v -0.393863 0.167694 0.500244
v -0.393863 0.075470 0.500244
v -0.393863 0.040967 0.463493
v 0.393863 1.034466 -0.550763
v 0.547264 1.034466 -0.550763
v 0.393863 0.937140 0.461305
v 0.393863 0.937140 0.369967
v -0.295930 0.986931 0.276150
v 0.393863 0.075470 -0.500244
v 0.393863 0.040967 -0.463493
v 0.590843 0.002890 -0.500244
v 0.547264 0.002890 -0.550763
v 0.393863 0.918116 0.500244
v 0.590870 0.969582 -0.247760
v 0.393863 0.969582 -0.247760
v 0.393863 0.969582 -0.394394
v 0.393863 1.002024 -0.247760
v 0.590856 1.002024 -0.247760
v 0.393863 0.040967 0.300000
v 0.393863 0.002890 -0.550763
v 0.590856 1.002024 -0.394394
v 0.393863 0.791390 0.500244
v 0.393863 0.167694 0.500244
v 0.393863 0.918116 -0.500244
v 0.590843 0.918116 0.300000
v 0.393863 0.937140 -0.221495
v 0.393863 0.040967 0.463493
v 0.547264 1.034466 0.550763
v 0.393863 1.034466 0.550763
v 0.393863 0.002890 0.300000
v 0.590843 0.002890 0.300000
v 0.393863 1.002024 -0.394394
v 0.393863 0.969582 0.394394
v 0.393863 0.002890 0.550763
v 0.547264 0.002890 0.550763
v 0.393863 0.937140 -0.461305
v 0.393863 0.075470 0.500244
v 0.393863 0.937140 -0.369967
v 0.393863 1.034466 0.500244
v 0.393863 1.034466 -0.500244
vt 0.1998 0.9167
vt 0.1336 0.9893
vt 0.1336 0.0119
vt 0.2411 0.8807
vt 0.2394 0.8606
vt 0.1998 0.9167
vt 0.0118 0.8789
vt 0.0118 0.5228
vt 0.1336 0.8789
vt 0.1336 0.5228
vt 0.9027 0.0036
vt 0.9027 0.2402
vt 0.9909 0.0036
vt 0.9909 0.2402
vt 0.7754 0.2127
vt 0.7754 0.0231
vt 0.8834 0.2127
vt 0.8834 0.0231
vt 0.7754 0.0231
vt 0.8834 0.0231
vt 0.7754 0.2127
vt 0.8834 0.2127
vt 0.7754 0.2127
vt 0.7754 0.0231
vt 0.8834 0.2127
vt 0.8834 0.0231
vt 0.8807 0.2376
vt 0.8807 0.2187
vt 0.7832 0.2376
vt 0.7832 0.2187
vt 0.7754 0.0231
vt 0.7754 0.2127
vt 0.8834 0.0231
vt 0.8834 0.2127
vt 0.6799 0.0969
vt 0.7409 0.0595
vt 0.3357 0.0969
vt 0.2747 0.0595
vt 0.8834 0.2127
vt 0.8834 0.0231
vt 0.7754 0.2127
vt 0.7754 0.0231
vt 0.1336 0.0127
vt 0.1336 0.5228
vt 0.0118 0.0127
vt 0.0118 0.5228
vt 0.0118 0.5228
vt 0.0118 0.0127
vt 0.1336 0.5228
vt 0.1336 0.0127
vt 0.8834 0.2127
vt 0.7754 0.2127
vt 0.8834 0.0231
vt 0.7754 0.0231
vt 0.8807 0.2187
vt 0.8807 0.2376
vt 0.7832 0.2187
vt 0.7832 0.2376
vt 0.2545 0.9910
vt 0.2545 0.2452
vt 0.9992 0.9910
vt 0.9992 0.2452
vt 0.2809 0.9872
vt 0.2809 0.2480
vt 0.9767 0.9872
vt 0.9767 0.2480
vt 0.0118 0.8789
vt 0.1336 0.8158
vt 0.0118 0.7694
vt 0.1336 0.6068
vt 0.0118 0.6506
vt 0.0118 0.5228
vt 0.1336 0.8789
vt 0.0118 0.9893
vt 0.1336 0.9893
vt 0.0118 0.8789
vt 0.1336 0.8789
vt 0.8834 0.2127
vt 0.8834 0.0231
vt 0.7754 0.2127
vt 0.7754 0.0231
vt 0.8834 0.2127
vt 0.8834 0.0231
vt 0.7754 0.2127
vt 0.7754 0.0231
vt 0.0118 0.0127
vt 0.1336 0.0127
vt 0.1336 0.5228
vt 0.8834 0.0231
vt 0.7754 0.0231
vt 0.7754 0.2127
vt 0.7754 0.0231
vt 0.8834 0.2127
vt 0.8834 0.0231
vt 0.1336 0.5228
vt 0.1336 0.0127
vt 0.0118 0.5228
vt 0.0118 0.0127
vt 0.2394 0.1699
vt 0.2394 0.7508
vt 0.1998 0.9167
vt 0.2394 0.8606
vt 0.9744 0.2229
vt 0.9744 0.0065
vt 0.9113 0.1960
vt 0.9113 0.0334
vt 0.1336 0.5228
vt 0.1336 0.8789
vt 0.0118 0.5228
vt 0.0118 0.8789
vt 0.9027 0.2402
vt 0.9027 0.0036
vt 0.9909 0.2402
vt 0.9909 0.0036
vt 0.7754 0.2127
vt 0.7754 0.0231
vt 0.8834 0.2127
vt 0.8834 0.0231
vt 0.8834 0.0231
vt 0.7754 0.0231
vt 0.7754 0.0231
vt 0.7754 0.2127
vt 0.8834 0.0231
vt 0.8834 0.2127
vt 0.9681 0.0281
vt 0.9125 0.0499
vt 0.9681 0.1998
vt 0.9125 0.1780
vt 0.8834 0.2127
vt 0.8834 0.0231
vt 0.7754 0.2127
vt 0.7754 0.0231
vt 0.7832 0.2376
vt 0.7832 0.2187
vt 0.8807 0.2376
vt 0.8807 0.2187
vt 0.9767 0.2480
vt 0.9767 0.9872
vt 0.2809 0.2480
vt 0.2809 0.9872
vt 0.0118 0.5228
vt 0.1336 0.6068
vt 0.0118 0.6506
vt 0.1336 0.8158
vt 0.0118 0.7694
vt 0.0118 0.8789
vt 0.8456 0.1783
vt 0.8578 0.1834
vt 0.8474 0.1834
vt 0.8511 0.0324
vt 0.8805 0.0316
vt 0.8511 0.0384
vt 0.8626 0.0384
vt 0.8652 0.0438
vt 0.8652 0.0582
vt 0.8791 0.1932
vt 0.8652 0.1556
vt 0.8652 0.1754
vt 0.8625 0.1783
vt 0.8652 0.1935
vt 0.8632 0.2030
vt 0.7968 0.2030
vt 0.8456 0.1935
vt 0.8144 0.1935
vt 0.7947 0.1935
vt 0.8022 0.1885
vt 0.7974 0.1783
vt 0.8022 0.1834
vt 0.8039 0.1783
vt 0.8144 0.1783
vt 0.8039 0.1754
vt 0.8560 0.1754
vt 0.8560 0.1783
vt 0.8578 0.1885
vt 0.8474 0.1885
vt 0.8125 0.1885
vt 0.7947 0.1754
vt 0.8125 0.1834
vt 0.7794 0.1941
vt 0.7947 0.1556
vt 0.7794 0.0307
vt 0.7947 0.0582
vt 0.7947 0.0438
vt 0.7973 0.0384
vt 0.8099 0.0319
vt 0.8088 0.0384
vt 0.1336 0.9893
vt 0.0118 0.9893
vt 0.1336 0.8789
vt 0.0118 0.8789
vt 0.7403 0.1242
vt 0.7403 0.1706
vt 0.2735 0.1242
vt 0.2735 0.1706
vt 0.9767 0.9872
vt 0.2809 0.9872
vt 0.9767 0.2480
vt 0.2809 0.2480
vt 0.9249 0.2406
vt 0.9249 0.0031
vt 0.8972 0.2406
vt 0.8972 0.0031
vt 0.0118 0.0127
vt 0.1336 0.5228
vt 0.1336 0.0127
vt 0.9125 0.0499
vt 0.9681 0.0281
vt 0.9125 0.1780
vt 0.9681 0.1998
vt 0.9072 -0.0012
vt 0.8943 -0.0012
vt 0.9072 0.2418
vt 0.8943 0.2418
vt 0.8834 0.2127
vt 0.8834 0.0231
vt 0.7754 0.2127
vt 0.7754 0.0231
vt 0.7754 0.0231
vt 0.8834 0.0231
vt 0.7754 0.2127
vt 0.8834 0.2127
vt 0.9989 0.2406
vt 0.9989 0.0031
vt 0.7754 0.0231
vt 0.7754 0.2127
vt 0.8834 0.0231
vt 0.8834 0.2127
vt 0.1336 0.0127
vt 0.1336 0.5228
vt 0.0118 0.0127
vt 0.0118 0.5228
vt 0.2411 0.9893
vt 0.2411 0.9471
vt 0.1998 0.9469
vt 0.2411 0.8807
vt 0.2411 0.9169
vt 0.2411 0.9169
vt 0.2411 0.8807
vt 0.1998 0.9167
vt 0.2411 0.9471
vt 0.1998 0.9469
vt 0.2411 0.9893
vt 0.1336 0.9893
vt 0.1336 0.9893
vt 0.1998 0.9469
vt 0.2411 0.9893
vt 0.2411 0.9471
vt 0.2411 0.9169
vt 0.1336 0.0119
vt 0.1336 0.9893
vt 0.9744 0.0065
vt 0.9744 0.2229
vt 0.9113 0.0334
vt 0.9113 0.1960
vt 0.2545 0.9910
vt 0.2545 0.2452
vt 0.9992 0.9910
vt 0.9992 0.2452
vt 0.9072 -0.0012
vt 0.9931 -0.0012
vt 0.9072 0.2418
vt 0.9931 0.2418
vt 0.9931 0.2418
vt 0.9931 -0.0012
vt 0.7754 0.0231
vt 0.7754 0.2127
vt 0.8614 0.0231
vt 0.8834 0.0231
vt 0.8834 0.2127
vt 0.2411 0.8807
vt 0.2411 0.9169
vt 0.1998 0.9469
vt 0.2411 0.9471
vt 0.2411 0.9893
vt 0.9027 0.2402
vt 0.9027 0.0036
vt 0.9909 0.2402
vt 0.9909 0.0036
vt 0.8834 0.2127
vt 0.7754 0.2127
vt 0.1336 0.9893
vt 0.0118 0.9893
vt 0.1336 0.8789
vt 0.0118 0.8789
vt 0.8834 0.2127
vt 0.7754 0.2127
vt 0.8834 0.0231
vt 0.8614 0.0231
vt 0.7754 0.0231
vt 0.2394 0.8606
vt 0.9027 0.0036
vt 0.9027 0.2402
vt 0.9909 0.0036
vt 0.9909 0.2402
vt 0.8834 0.2127
vt 0.7754 0.2127
vt 0.7754 0.2127
vt 0.8834 0.2127
vt 0.7754 0.0231
vt 0.8834 0.0231
vt 0.0118 0.9893
vt 0.1336 0.9893
vt 0.0118 0.8789
vt 0.1336 0.8789
vt 0.7832 0.2187
vt 0.7832 0.2376
vt 0.8807 0.2187
vt 0.8807 0.2376
vt 0.7754 0.2127
vt 0.7754 0.0231
vt 0.8834 0.2127
vt 0.8834 0.0231
vt 0.7409 0.0595
vt 0.6799 0.0969
vt 0.2747 0.0595
vt 0.3357 0.0969
vt 0.8834 0.0231
vt 0.7754 0.0231
vt 0.1336 0.5228
vt 0.1336 0.0127
vt 0.0118 0.5228
vt 0.0118 0.0127
vt 0.0118 0.0127
vt 0.0118 0.5228
vt 0.1336 0.0127
vt 0.1336 0.5228
vt 0.8834 0.2127
vt 0.7754 0.2127
vt 0.8943 -0.0012
vt 0.8943 0.2418
vt 0.9989 0.0031
vt 0.9989 0.2406
vt 0.9249 0.0031
vt 0.9249 0.2406
vt 0.5687 0.0289
vt 0.6703 0.0289
vt 0.5687 0.0128
vt 0.6703 0.0128
vt 0.8834 0.2127
vt 0.7754 0.2127
vt 0.8834 0.0231
vt 0.7754 0.0231
vt 0.7754 0.0231
vt 0.8834 0.0231
vt 0.7754 0.2127
vt 0.8834 0.2127
vt 0.8834 0.2127
vt 0.7754 0.2127
vt 0.7754 0.0231
vt 0.7403 0.1242
vt 0.7403 0.1706
vt 0.2735 0.1242
vt 0.2735 0.1706
vt 0.6703 0.0128
vt 0.5687 0.0128
vt 0.6703 0.0289
vt 0.5687 0.0289
vt 0.2394 0.0119
vt 0.1336 0.0119
vt 0.2394 0.0519
vt 0.2394 0.1699
vt 0.8099 0.0319
vt 0.7794 0.0307
vt 0.8088 0.0384
vt 0.7973 0.0384
vt 0.7947 0.0438
vt 0.7947 0.0582
vt 0.7794 0.1941
vt 0.7947 0.1556
vt 0.7947 0.1754
vt 0.7974 0.1783
vt 0.7947 0.1935
vt 0.8022 0.1834
vt 0.8022 0.1885
vt 0.8125 0.1885
vt 0.8144 0.1935
vt 0.8632 0.2030
vt 0.8456 0.1935
vt 0.8652 0.1935
vt 0.8578 0.1885
vt 0.8625 0.1783
vt 0.8578 0.1834
vt 0.8560 0.1783
vt 0.8456 0.1783
vt 0.8560 0.1754
vt 0.8144 0.1783
vt 0.8039 0.1754
vt 0.8039 0.1783
vt 0.8474 0.1834
vt 0.7968 0.2030
vt 0.8474 0.1885
vt 0.8125 0.1834
vt 0.8791 0.1932
vt 0.8652 0.1754
vt 0.8652 0.1556
vt 0.8805 0.0316
vt 0.8652 0.0582
vt 0.8652 0.0438
vt 0.8626 0.0384
vt 0.8511 0.0324
vt 0.8511 0.0384
vt 0.2394 0.0119
vt 0.2394 0.0519
vt 0.8834 0.2127
vt 0.8834 0.0231
vt 0.7754 0.2127
vt 0.8614 0.0231
vt 0.7754 0.0231
vt 0.2394 0.7508
vt 0.1336 0.8789
vt 0.7754 0.0231
vt 0.8614 0.0231
vt 0.7754 0.2127
vt 0.8834 0.0231
vt 0.8834 0.2127
vt 0.8972 0.2406
vt 0.8972 0.0031
vt 0.2394 0.7508
vt 0.2394 0.1699
vt 0.2394 0.8606
vt 0.2394 0.7508
vt 0.2394 0.1699
vt 0.2394 0.0119
vt 0.2394 0.0519
vt 0.1336 0.0119
vt 0.2394 0.0519
vt 0.2394 0.0119
vn 1.0000 0.0000 0.0001
vn 1.0000 0.0001 0.0002
vn 1.0000 -0.0000 0.0000
vn 1.0000 -0.0020 -0.0008
vn 1.0000 0.0004 0.0002
vn 1.0000 0.0000 -0.0001
vn 0.0000 1.0000 0.0000
vn -1.0000 -0.0000 0.0000
vn 0.0000 -1.0000 -0.0000
vn 0.0000 -0.6292 -0.7772
vn 0.0000 0.0000 -1.0000
vn -1.0000 -0.0022 -0.0011
vn -1.0000 -0.0013 0.0002
vn -1.0000 -0.0020 0.0008
vn -1.0000 -0.0014 -0.0002
vn 0.0000 -0.0000 1.0000
vn -0.7572 -0.0000 0.6532
vn 0.0000 0.6292 -0.7772
vn -1.0000 0.0000 0.0001
vn -1.0000 0.0000 -0.0001
vn -0.8111 0.5849 0.0000
vn -0.5735 0.6530 0.4947
vn 0.0000 0.7971 -0.6038
vn 0.0000 0.6292 0.7772
vn -0.7572 0.0000 -0.6532
vn 0.0000 -0.6292 0.7772
vn 0.0000 0.8063 -0.5915
vn 0.5749 0.8182 0.0000
vn 0.8111 0.5849 0.0000
vn 0.0000 -0.7291 -0.6845
vn 0.7572 0.0000 -0.6532
vn -0.5749 0.8182 0.0000
vn 0.0000 0.8985 0.4390
vn 1.0000 0.0004 0.0000
vn 1.0000 -0.0022 0.0011
vn -1.0000 0.0004 0.0000
vn -1.0000 0.0001 0.0002
vn -0.5735 0.6530 -0.4947
vn 1.0000 0.0001 -0.0002
vn -1.0000 0.0001 -0.0002
vn 0.0000 0.8063 0.5915
vn 0.0000 0.7971 0.6038
vn 1.0000 -0.0014 0.0002
vn 0.7572 -0.0000 0.6532
vn 0.0000 0.8985 -0.4390
vn 0.5735 0.6530 0.4947
vn 0.5735 0.6530 -0.4947
vn 0.0000 -0.7291 0.6845
usemtl Material.001
s 1
f 1/1/1 3/2/2 2/3/3
f 4/4/4 6/5/5 5/6/6
f 7/7/7 9/8/7 8/9/7
f 8/9/7 9/8/7 10/10/7
f 11/11/8 13/12/8 12/13/8
f 12/13/8 13/12/8 14/14/8
f 15/15/9 17/16/9 16/17/9
f 16/17/9 17/16/9 18/18/9
f 19/19/10 20/20/10 17/21/10
f 17/21/10 20/20/10 18/22/10
f 19/23/9 21/24/9 20/25/9
f 20/25/9 21/24/9 22/26/9
f 23/27/11 24/28/11 13/29/11
f 13/29/11 24/28/11 25/30/11
f 26/31/9 28/32/9 27/33/9
f 27/33/9 28/32/9 29/34/9
f 30/35/12 32/36/13 31/37/14
f 31/37/14 32/36/13 33/38/15
f 34/39/7 36/40/7 35/41/7
f 35/41/7 36/40/7 37/42/7
f 38/43/16 40/44/16 39/45/16
f 39/45/16 40/44/16 41/46/16
f 42/47/17 43/48/17 41/49/17
f 41/49/17 43/48/17 39/50/17
f 36/40/11 22/51/11 37/42/11
f 37/42/11 22/51/11 21/52/11
f 31/53/18 34/39/18 44/54/18
f 44/54/18 34/39/18 35/41/18
f 45/55/16 47/56/16 46/57/16
f 46/57/16 47/56/16 11/58/16
f 48/59/11 50/60/11 49/61/11
f 49/61/11 50/60/11 51/62/11
f 52/63/19 12/64/8 53/65/20
f 53/65/20 12/64/8 14/66/8
f 42/67/21 9/68/21 18/69/21
f 9/68/21 7/70/21 18/69/21
f 18/69/21 7/70/21 16/71/21
f 7/70/21 54/72/21 16/71/21
f 42/67/22 41/73/22 9/68/22
f 7/74/23 8/75/23 55/76/23
f 55/76/23 8/75/23 56/77/23
f 27/78/16 57/79/16 26/80/16
f 26/80/16 57/79/16 58/81/16
f 59/82/24 30/83/24 60/84/24
f 60/84/24 30/83/24 61/85/24
f 62/86/25 54/72/25 63/87/25
f 63/87/25 54/72/25 55/88/25
f 57/79/7 59/82/7 58/81/7
f 58/81/7 59/82/7 60/84/7
f 29/89/26 28/90/26 16/17/26
f 16/17/26 28/90/26 15/15/26
f 47/91/9 23/92/9 11/93/9
f 11/93/9 23/92/9 13/94/9
f 56/95/11 64/96/11 55/97/11
f 55/97/11 64/96/11 63/98/11
f 12/99/8 52/100/19 57/101/20
f 57/101/20 52/100/19 32/102/13
f 65/103/27 67/104/27 66/105/27
f 66/105/27 67/104/27 68/106/27
f 69/107/7 71/108/7 70/109/7
f 70/109/7 71/108/7 72/110/7
f 73/111/3 75/112/3 74/113/3
f 74/113/3 75/112/3 76/114/3
f 77/115/9 79/116/9 78/117/9
f 78/117/9 79/116/9 80/118/9
f 81/119/10 82/120/10 78/117/10
f 78/117/10 82/120/10 77/115/10
f 83/121/9 82/122/9 84/123/9
f 84/123/9 82/122/9 81/124/9
f 65/125/28 66/126/28 85/127/28
f 85/127/28 66/126/28 86/128/28
f 87/129/18 89/130/18 88/131/18
f 88/131/18 89/130/18 90/132/18
f 91/133/16 92/134/16 75/135/16
f 75/135/16 92/134/16 93/136/16
f 76/137/3 94/138/1 74/139/3
f 74/139/3 94/138/1 95/140/6
f 96/141/29 71/142/29 80/143/29
f 71/142/29 69/144/29 80/143/29
f 80/143/29 69/144/29 78/145/29
f 69/144/29 3/146/29 78/145/29
f 61/147/3 58/148/3 60/149/3
f 45/150/3 64/151/3 47/152/3
f 47/152/3 64/151/3 97/153/3
f 97/153/3 64/151/3 98/154/3
f 98/154/3 64/151/3 51/155/3
f 64/151/3 56/156/3 51/155/3
f 51/155/3 56/156/3 49/157/3
f 49/157/3 56/156/3 99/158/3
f 99/158/3 56/156/3 100/159/3
f 100/159/3 56/156/3 101/160/3
f 56/156/3 8/161/3 101/160/3
f 8/161/3 10/162/3 101/160/3
f 101/160/3 10/162/3 15/163/3
f 15/163/3 10/162/3 17/164/3
f 10/162/3 102/165/3 17/164/3
f 17/164/3 102/165/3 21/166/3
f 102/165/3 103/167/3 21/166/3
f 21/166/3 103/167/3 37/168/3
f 103/167/3 104/169/3 37/168/3
f 37/168/3 104/169/3 44/170/3
f 104/169/3 105/171/3 44/170/3
f 44/170/3 105/171/3 61/147/3
f 105/171/3 67/172/3 61/147/3
f 67/172/3 106/173/3 61/147/3
f 61/147/3 106/173/3 58/148/3
f 106/173/3 100/159/3 58/148/3
f 100/159/3 101/160/3 58/148/3
f 58/148/3 101/160/3 26/174/3
f 26/174/3 101/160/3 28/175/3
f 101/160/3 15/163/3 28/175/3
f 17/164/3 21/166/3 19/176/3
f 102/165/3 107/177/3 103/167/3
f 35/178/3 37/168/3 44/170/3
f 10/162/3 40/179/3 102/165/3
f 102/165/3 40/179/3 107/177/3
f 107/177/3 40/179/3 108/180/3
f 40/179/3 38/181/3 108/180/3
f 108/180/3 38/181/3 109/182/3
f 109/182/3 38/181/3 110/183/3
f 110/183/3 38/181/3 111/184/3
f 38/181/3 24/185/3 111/184/3
f 111/184/3 24/185/3 23/186/3
f 72/187/23 71/188/23 112/189/23
f 112/189/23 71/188/23 113/190/23
f 114/191/7 115/192/7 103/193/7
f 103/193/7 115/192/7 104/194/7
f 66/195/7 68/196/7 86/197/7
f 86/197/7 68/196/7 116/198/7
f 98/199/30 117/200/30 97/201/30
f 97/201/30 117/200/30 118/202/30
f 96/141/31 119/203/31 113/204/31
f 113/204/31 119/203/31 120/205/31
f 68/206/32 67/207/32 116/208/32
f 116/208/32 67/207/32 105/209/32
f 121/210/33 114/211/33 107/212/33
f 107/212/33 114/211/33 103/213/33
f 122/214/7 5/215/7 123/216/7
f 123/216/7 5/215/7 124/217/7
f 125/218/26 126/219/26 79/220/26
f 79/220/26 126/219/26 80/221/26
f 51/222/11 50/223/11 98/199/11
f 98/199/11 50/223/11 117/200/11
f 127/224/9 91/225/9 73/226/9
f 73/226/9 91/225/9 75/227/9
f 128/228/11 112/229/11 120/230/11
f 120/230/11 112/229/11 113/231/11
f 78/232/34 3/2/2 81/233/34
f 81/233/34 3/2/2 84/234/34
f 84/234/34 3/2/2 1/1/1
f 1/1/1 89/235/35 87/236/34
f 34/237/36 31/238/14 36/239/19
f 20/240/36 22/241/36 18/242/36
f 18/242/36 22/241/36 42/243/37
f 22/241/36 36/239/19 42/243/37
f 7/70/38 55/88/38 54/72/38
f 5/6/6 96/244/39 129/245/34
f 96/244/39 80/246/34 129/245/34
f 129/245/34 80/246/34 126/247/34
f 122/248/34 4/4/4 5/6/6
f 62/249/8 57/101/20 54/250/40
f 105/251/41 85/252/41 116/253/41
f 116/253/41 85/252/41 86/254/41
f 108/255/16 109/256/16 130/257/16
f 130/257/16 109/256/16 131/258/16
f 132/259/11 48/260/11 99/261/11
f 99/261/11 48/260/11 49/262/11
f 107/212/16 108/263/16 121/210/16
f 121/210/16 108/263/16 130/264/16
f 64/265/9 45/266/9 63/267/9
f 63/267/9 45/266/9 62/268/9
f 45/266/9 46/269/9 62/268/9
f 57/101/20 30/270/12 59/271/36
f 57/101/20 27/272/36 54/250/40
f 27/272/36 29/273/36 54/250/40
f 54/250/40 29/273/36 16/274/36
f 33/275/15 32/276/13 53/277/20
f 53/277/20 32/276/13 52/278/19
f 30/279/7 31/53/7 61/280/7
f 61/280/7 31/53/7 44/54/7
f 10/281/42 9/282/42 40/283/42
f 40/283/42 9/282/42 41/284/42
f 93/285/9 92/286/9 119/287/9
f 119/287/9 92/286/9 120/288/9
f 92/286/9 128/289/9 120/288/9
f 33/290/15 36/239/19 31/238/14
f 6/291/5 133/292/43 94/293/1
f 94/293/1 133/292/43 95/294/6
f 89/130/7 4/295/7 90/132/7
f 90/132/7 4/295/7 134/296/7
f 111/297/9 23/298/9 135/299/9
f 135/299/9 23/298/9 127/300/9
f 69/301/42 70/302/42 136/303/42
f 136/303/42 70/302/42 137/304/42
f 138/305/11 127/306/11 139/307/11
f 139/307/11 127/306/11 73/308/11
f 125/309/9 140/310/9 126/311/9
f 126/311/9 140/310/9 129/312/9
f 6/313/5 4/314/4 133/315/43
f 133/315/43 4/314/4 89/316/35
f 1/317/7 87/129/7 141/318/7
f 141/318/7 87/129/7 88/131/7
f 137/319/16 142/320/16 136/321/16
f 136/321/16 142/320/16 143/322/16
f 2/323/44 3/324/44 143/325/44
f 143/325/44 3/324/44 136/326/44
f 84/327/11 1/317/11 83/328/11
f 83/328/11 1/317/11 141/318/11
f 144/329/45 132/259/45 100/330/45
f 100/330/45 132/259/45 99/261/45
f 131/331/16 109/332/16 145/333/16
f 145/333/16 109/332/16 110/334/16
f 67/335/16 65/336/16 106/337/16
f 106/337/16 65/336/16 146/338/16
f 5/215/16 129/339/16 124/217/16
f 124/217/16 129/339/16 140/340/16
f 4/295/24 122/341/24 134/296/24
f 134/296/24 122/341/24 123/342/24
f 47/343/9 91/344/9 23/345/9
f 23/345/9 91/344/9 127/346/9
f 47/347/9 97/348/9 91/344/9
f 91/344/9 97/348/9 118/349/9
f 146/350/7 144/351/7 106/352/7
f 106/352/7 144/351/7 100/353/7
f 85/354/11 105/355/11 115/356/11
f 115/356/11 105/355/11 104/357/11
f 25/358/8 43/359/8 13/360/8
f 13/360/8 43/359/8 14/361/8
f 43/359/8 36/239/19 14/361/8
f 36/239/19 43/359/8 42/243/37
f 138/362/8 142/363/8 127/364/8
f 127/364/8 142/363/8 135/365/8
f 135/365/8 142/363/8 145/366/8
f 145/366/8 142/363/8 131/367/8
f 142/363/8 137/368/8 131/367/8
f 131/367/8 137/368/8 130/369/8
f 130/369/8 137/368/8 121/370/8
f 121/370/8 137/368/8 114/371/8
f 137/368/8 147/372/8 114/371/8
f 114/371/8 147/372/8 141/373/8
f 141/373/8 147/372/8 83/374/8
f 83/374/8 147/372/8 82/375/8
f 82/375/8 147/372/8 77/376/8
f 147/372/8 72/377/8 77/376/8
f 77/376/8 72/377/8 79/378/8
f 72/377/8 148/379/8 79/378/8
f 79/378/8 148/379/8 140/380/8
f 148/379/8 144/381/8 140/380/8
f 140/380/8 144/381/8 124/382/8
f 144/381/8 146/383/8 124/382/8
f 124/382/8 146/383/8 134/384/8
f 146/383/8 65/385/8 134/384/8
f 134/384/8 65/385/8 90/386/8
f 65/385/8 85/387/8 90/386/8
f 85/387/8 115/388/8 90/386/8
f 90/386/8 115/388/8 141/373/8
f 115/388/8 114/371/8 141/373/8
f 123/389/8 124/382/8 134/384/8
f 137/368/8 70/390/8 147/372/8
f 70/390/8 72/377/8 147/372/8
f 79/378/8 140/380/8 125/391/8
f 90/386/8 141/373/8 88/392/8
f 148/379/8 72/377/8 112/393/8
f 144/381/8 148/379/8 132/394/8
f 148/379/8 112/393/8 132/394/8
f 132/394/8 112/393/8 48/395/8
f 112/393/8 128/396/8 48/395/8
f 48/395/8 128/396/8 50/397/8
f 50/397/8 128/396/8 117/398/8
f 117/398/8 128/396/8 118/399/8
f 128/396/8 92/400/8 118/399/8
f 118/399/8 92/400/8 91/401/8
f 46/402/8 11/403/8 62/249/8
f 11/403/8 12/99/8 62/249/8
f 62/249/8 12/99/8 57/101/20
f 57/101/20 32/102/13 30/270/12
f 139/404/9 2/405/9 138/406/9
f 2/405/9 143/407/9 138/406/9
f 138/406/9 143/407/9 142/408/9
f 14/361/8 36/239/19 53/409/20
f 36/239/19 33/290/15 53/409/20
f 69/144/46 136/410/46 3/146/46
f 38/411/9 39/412/9 24/413/9
f 39/412/9 43/414/9 24/413/9
f 24/413/9 43/414/9 25/415/9
f 96/141/47 113/204/47 71/142/47
f 110/334/48 111/416/48 145/333/48
f 111/416/48 135/417/48 145/333/48
f 6/5/5 94/418/1 5/6/6
f 94/418/1 76/419/3 5/6/6
f 133/420/43 1/1/1 95/421/6
f 1/1/1 74/422/3 95/421/6
f 139/423/3 73/424/3 2/3/3
f 73/424/3 74/422/3 2/3/3
f 2/3/3 74/422/3 1/1/1
f 96/244/39 5/6/6 119/425/3
f 5/6/6 76/419/3 119/425/3
f 76/419/3 75/426/3 119/425/3
f 119/425/3 75/426/3 93/427/3
f 89/235/35 1/1/1 133/420/43
